<mxfile host="app.diagrams.net" modified="2023-12-10T11:37:38.620Z" agent="Mozilla/5.0 (Windows NT 10.0; Win64; x64) AppleWebKit/537.36 (KHTML, like Gecko) Chrome/118.0.0.0 Safari/537.36 OPR/104.0.0.0 (Edition std-1)" version="22.1.7" etag="qZDJoi0dqwoTSgIX7UXC" type="github">
  <diagram name="PÃ¡gina-1" id="GyjACDwWKiMLEvrwJGzy">
    <mxGraphModel>
      <root>
        <mxCell id="0" />
        <mxCell id="1" parent="0" />
      </root>
    </mxGraphModel>
  </diagram>
</mxfile>
